<svg width="20" height="20" viewBox="0 0 20 20" fill="none" xmlns="http://www.w3.org/2000/svg">
<path d="M13 3C13 2.64193 13.1914 2.3112 13.5019 2.13286C13.8124 1.95452 14.1946 1.9558 14.5039 2.13622L17.5039 3.88622C17.8111 4.06543 18 4.39433 18 4.75C18 5.10567 17.8111 5.43457 17.5039 5.61378L14.5039 7.36378C14.1946 7.5442 13.8124 7.54548 13.5019 7.36714C13.1914 7.1888 13 6.85807 13 6.5V5.5H6.75C4.95507 5.5 3.5 6.95507 3.5 8.75V17.25C3.5 17.6642 3.16421 18 2.75 18C2.33579 18 2 17.6642 2 17.25V8.75C2 6.12665 4.12665 4 6.75 4H13V3Z" fill="#0F172A"/>
<path d="M7.78748 17.1699C6.20544 17.1699 4.99255 16.2793 4.99255 15.3125C4.99255 14.9434 5.25623 14.6738 5.61365 14.6738C5.87146 14.6738 6.06482 14.7969 6.28162 15.1133C6.62146 15.6523 7.14294 15.9395 7.79919 15.9395C8.6781 15.9395 9.24646 15.4648 9.24646 14.7383C9.24646 14.0117 8.66638 13.5195 7.80505 13.5195H7.23083C6.87927 13.5195 6.62146 13.2559 6.62146 12.8926C6.62146 12.541 6.87341 12.2773 7.23083 12.2773H7.77576C8.49646 12.2773 9.0238 11.8086 9.0238 11.1641C9.0238 10.5195 8.50818 10.0801 7.76404 10.0801C7.18396 10.0801 6.73279 10.3496 6.42224 10.877C6.24646 11.1699 6.04138 11.293 5.76599 11.293C5.39099 11.293 5.12146 11.0293 5.12146 10.6484C5.12146 9.71094 6.26404 8.84961 7.79333 8.84961C9.41052 8.84961 10.5472 9.72266 10.5472 10.9707C10.5472 11.8379 9.89685 12.6348 9.08826 12.752V12.8516C10.0609 12.9453 10.7933 13.7773 10.7933 14.791C10.7933 16.1914 9.55115 17.1699 7.78748 17.1699Z" fill="#0F172A"/>
<path fill-rule="evenodd" clip-rule="evenodd" d="M14.7191 17.1699C12.8207 17.1699 11.6898 15.6113 11.6898 13.1973V12.8223C11.6898 10.4199 12.8383 8.84961 14.7426 8.84961C16.6527 8.84961 17.7777 10.4023 17.7777 12.8223V13.1973C17.7777 15.5938 16.6176 17.1699 14.7191 17.1699ZM14.7308 10.1387C13.8226 10.1387 13.2719 11.1406 13.2719 12.8281V13.1855C13.2719 14.873 13.8226 15.8809 14.7308 15.8809C15.639 15.8809 16.1898 14.873 16.1898 13.1855V12.8281C16.1898 11.1465 15.639 10.1387 14.7308 10.1387Z" fill="#0F172A"/>
</svg>
