<svg width="20" height="20" viewBox="0 0 20 20" fill="none" xmlns="http://www.w3.org/2000/svg">
<path fill-rule="evenodd" clip-rule="evenodd" d="M2 4.25C2 3.00736 3.00736 2 4.25 2H15.75C16.9926 2 18 3.00736 18 4.25V15.75C18 16.9926 16.9926 18 15.75 18H4.25C3.00736 18 2 16.9926 2 15.75V4.25ZM11.75 4C11.3358 4 11 4.33579 11 4.75C11 5.16421 11.3358 5.5 11.75 5.5H14.5V8.25C14.5 8.66421 14.8358 9 15.25 9C15.6642 9 16 8.66421 16 8.25V4.75C16 4.33579 15.6642 4 15.25 4H11.75ZM9 15.25C9 15.6642 8.66421 16 8.25 16H4.75C4.33579 16 4 15.6642 4 15.25V11.75C4 11.3358 4.33579 11 4.75 11C5.16421 11 5.5 11.3358 5.5 11.75V14.5H8.25C8.66421 14.5 9 14.8358 9 15.25Z" fill="#0F172A"/>
</svg>
