<svg width="20" height="20" viewBox="0 0 20 20" fill="none" xmlns="http://www.w3.org/2000/svg">
<path d="M10 5.75C10 5.33579 10.3358 5 10.75 5H14.25C14.6642 5 15 5.33579 15 5.75V9.25C15 9.66421 14.6642 10 14.25 10C13.8358 10 13.5 9.66421 13.5 9.25V6.5H10.75C10.3358 6.5 10 6.16421 10 5.75Z" fill="#0F172A"/>
<path d="M9.25 15C9.66421 15 10 14.6642 10 14.25C10 13.8358 9.66421 13.5 9.25 13.5H6.5V10.75C6.5 10.3358 6.16422 10 5.75 10C5.33579 10 5 10.3358 5 10.75V14.25C5 14.6642 5.33579 15 5.75 15H9.25Z" fill="#0F172A"/>
<path fill-rule="evenodd" clip-rule="evenodd" d="M4.25 2C3.00736 2 2 3.00736 2 4.25V15.75C2 16.9926 3.00736 18 4.25 18H15.75C16.9926 18 18 16.9926 18 15.75V4.25C18 3.00736 16.9926 2 15.75 2H4.25ZM3.5 4.25C3.5 3.83579 3.83579 3.5 4.25 3.5H15.75C16.1642 3.5 16.5 3.83579 16.5 4.25V15.75C16.5 16.1642 16.1642 16.5 15.75 16.5H4.25C3.83579 16.5 3.5 16.1642 3.5 15.75V4.25Z" fill="#0F172A"/>
</svg>
