<svg width="20" height="20" viewBox="0 0 20 20" fill="none" xmlns="http://www.w3.org/2000/svg">
<path fill-rule="evenodd" clip-rule="evenodd" d="M2 4.25C2 3.00736 3.00736 2 4.25 2H15.75C16.9926 2 18 3.00736 18 4.25V15.75C18 16.9926 16.9926 18 15.75 18H4.25C3.00736 18 2 16.9926 2 15.75V4.25ZM7.00645 13.1318C5.25303 13.1318 4.29502 12.0771 4.29502 10.2271V9.69971C4.29502 7.95508 5.28818 6.896 7.00645 6.896C7.81504 6.896 8.55771 7.1377 8.99277 7.55078C9.27842 7.82324 9.4542 8.13965 9.4542 8.42969C9.4542 8.83398 9.16416 9.11084 8.75107 9.11084C8.4918 9.11084 8.29404 9.01416 8.02158 8.78125C7.70518 8.47803 7.45469 8.34619 7.1251 8.34619C6.42637 8.34619 6.03086 8.87793 6.03086 9.79639V10.1392C6.03086 11.1411 6.41318 11.6772 7.1251 11.6772C7.45469 11.6772 7.74473 11.541 8.04795 11.2466C8.3248 11.0005 8.50938 10.9126 8.75986 10.9126C9.17295 10.9126 9.46299 11.1938 9.46299 11.5938C9.46299 11.9805 9.20811 12.3628 8.79502 12.6396C8.35557 12.9473 7.73594 13.1318 7.00645 13.1318ZM13.2572 13.1318C11.5038 13.1318 10.5458 12.0771 10.5458 10.2271V9.69971C10.5458 7.95508 11.539 6.896 13.2572 6.896C14.0658 6.896 14.8085 7.1377 15.2436 7.55078C15.5292 7.82324 15.705 8.13965 15.705 8.42969C15.705 8.83398 15.4149 9.11084 15.0019 9.11084C14.7426 9.11084 14.5448 9.01416 14.2724 8.78125C13.956 8.47803 13.7055 8.34619 13.3759 8.34619C12.6771 8.34619 12.2816 8.87793 12.2816 9.79639V10.1392C12.2816 11.1411 12.664 11.6772 13.3759 11.6772C13.7055 11.6772 13.9955 11.541 14.2987 11.2466C14.5756 11.0005 14.7602 10.9126 15.0106 10.9126C15.4237 10.9126 15.7138 11.1938 15.7138 11.5938C15.7138 11.9805 15.4589 12.3628 15.0458 12.6396C14.6063 12.9473 13.9867 13.1318 13.2572 13.1318Z" fill="#0F172A"/>
</svg>
