<svg width="20" height="20" viewBox="0 0 20 20" fill="none" xmlns="http://www.w3.org/2000/svg">
<path d="M7.26221 13.1318C5.5835 13.1318 4.65625 12.1035 4.65625 10.3018V9.65137C4.65625 7.92432 5.60986 6.8916 7.26221 6.8916C8.04443 6.8916 8.73877 7.12891 9.16943 7.54639C9.45947 7.82764 9.63525 8.17041 9.63525 8.44287C9.63525 8.79443 9.39355 9.02734 9.04199 9.02734C8.80908 9.02734 8.6377 8.93945 8.40918 8.70654C8.07959 8.30225 7.77197 8.11768 7.3501 8.11768C6.55908 8.11768 6.11084 8.70215 6.11084 9.71729V10.2358C6.11084 11.3169 6.55029 11.9014 7.3501 11.9014C7.77637 11.9014 8.11914 11.7168 8.43115 11.3213C8.66406 11.0796 8.82227 10.9961 9.04639 10.9961C9.40234 10.9961 9.64404 11.2334 9.64404 11.5806C9.64404 11.9277 9.40674 12.3145 9.02441 12.6001C8.59375 12.9341 7.9873 13.1318 7.26221 13.1318Z" fill="#0F172A"/>
<path d="M12.9751 13.1318C11.2964 13.1318 10.3691 12.1035 10.3691 10.3018V9.65137C10.3691 7.92432 11.3228 6.8916 12.9751 6.8916C13.7573 6.8916 14.4517 7.12891 14.8823 7.54639C15.1724 7.82764 15.3481 8.17041 15.3481 8.44287C15.3481 8.79443 15.1064 9.02734 14.7549 9.02734C14.522 9.02734 14.3506 8.93945 14.1221 8.70654C13.7925 8.30225 13.4849 8.11768 13.063 8.11768C12.272 8.11768 11.8237 8.70215 11.8237 9.71729V10.2358C11.8237 11.3169 12.2632 11.9014 13.063 11.9014C13.4893 11.9014 13.832 11.7168 14.144 11.3213C14.377 11.0796 14.5352 10.9961 14.7593 10.9961C15.1152 10.9961 15.3569 11.2334 15.3569 11.5806C15.3569 11.9277 15.1196 12.3145 14.7373 12.6001C14.3066 12.9341 13.7002 13.1318 12.9751 13.1318Z" fill="#0F172A"/>
<path fill-rule="evenodd" clip-rule="evenodd" d="M4.25 2C3.00736 2 2 3.00736 2 4.25V15.75C2 16.9926 3.00736 18 4.25 18H15.75C16.9926 18 18 16.9926 18 15.75V4.25C18 3.00736 16.9926 2 15.75 2H4.25ZM3.5 4.25C3.5 3.83579 3.83579 3.5 4.25 3.5H15.75C16.1642 3.5 16.5 3.83579 16.5 4.25V15.75C16.5 16.1642 16.1642 16.5 15.75 16.5H4.25C3.83579 16.5 3.5 16.1642 3.5 15.75V4.25Z" fill="#0F172A"/>
</svg>
