<svg width="20" height="20" viewBox="0 0 20 20" fill="none" xmlns="http://www.w3.org/2000/svg">
<path fill-rule="evenodd" clip-rule="evenodd" d="M4 4.375C4 2.51088 5.51088 1 7.375 1H13C14.8641 1 16.375 2.51088 16.375 4.375C16.375 5.54838 15.7754 6.58337 14.8664 7.1875C15.7754 7.79163 16.375 8.82662 16.375 10C16.375 11.8641 14.8641 13.375 13 13.375C12.136 13.375 11.3463 13.0499 10.75 12.5155V15.625C10.75 17.4891 9.23913 19 7.375 19C5.51088 19 4 17.4891 4 15.625C4 14.4505 4.59962 13.4178 5.50862 12.8125C4.59962 12.2072 4 11.1745 4 10C4 8.82662 4.59962 7.79163 5.50862 7.1875C4.59962 6.58337 4 5.54838 4 4.375ZM7.375 6.625C6.13188 6.625 5.125 5.61812 5.125 4.375C5.125 3.13188 6.13188 2.125 7.375 2.125H9.625V6.625H7.375ZM9.625 7.75H7.375C6.13188 7.75 5.125 8.75688 5.125 10C5.125 11.2431 6.13188 12.25 7.375 12.25H9.625V7.75ZM9.625 13.375H7.375C6.13188 13.375 5.125 14.3819 5.125 15.625C5.125 16.8681 6.13188 17.875 7.375 17.875C8.61813 17.875 9.625 16.8681 9.625 15.625V13.375ZM13 7.75C11.7569 7.75 10.75 8.75688 10.75 10C10.75 11.2431 11.7569 12.25 13 12.25C14.2431 12.25 15.25 11.2431 15.25 10C15.25 8.75688 14.2431 7.75 13 7.75ZM13 6.625C14.2431 6.625 15.25 5.61812 15.25 4.375C15.25 3.13188 14.2431 2.125 13 2.125H10.75V6.625H13Z" fill="#87878C"/>
</svg>
