<svg width="20" height="20" viewBox="0 0 20 20" fill="none" xmlns="http://www.w3.org/2000/svg">
<path fill-rule="evenodd" clip-rule="evenodd" d="M10 1C5.0275 1 1 5.02776 1 10.0006C1 13.9833 3.57625 17.3473 7.15375 18.5399C7.60375 18.6186 7.7725 18.3486 7.7725 18.1123C7.7725 17.8986 7.76125 17.1898 7.76125 16.436C5.5 16.8523 4.915 15.8847 4.735 15.3784C4.63375 15.1197 4.195 14.3209 3.8125 14.1071C3.4975 13.9383 3.0475 13.5221 3.80125 13.5108C4.51 13.4996 5.01625 14.1633 5.185 14.4334C5.995 15.7947 7.28875 15.4122 7.80625 15.1759C7.885 14.5909 8.12125 14.1971 8.38 13.9721C6.3775 13.7471 4.285 12.9708 4.285 9.52805C4.285 8.54923 4.63375 7.73918 5.2075 7.10914C5.1175 6.88413 4.8025 5.96157 5.2975 4.72399C5.2975 4.72399 6.05125 4.48772 7.7725 5.64655C8.4925 5.44404 9.2575 5.34278 10.0225 5.34278C10.7875 5.34278 11.5525 5.44404 12.2725 5.64655C13.9937 4.47647 14.7475 4.72399 14.7475 4.72399C15.2425 5.96157 14.9275 6.88413 14.8375 7.10914C15.4112 7.73918 15.76 8.53798 15.76 9.52805C15.76 12.982 13.6562 13.7471 11.6538 13.9721C11.98 14.2534 12.2613 14.7934 12.2613 15.6372C12.2613 16.841 12.25 17.8086 12.25 18.1123C12.25 18.3486 12.4187 18.6299 12.8687 18.5399C14.6554 17.9367 16.2079 16.7883 17.3078 15.2565C18.4077 13.7246 18.9995 11.8864 19 10.0006C19 5.02776 14.9725 1 10 1Z" fill="#87878C"/>
</svg>
