<svg width="24" height="24" viewBox="0 0 24 24" fill="none" xmlns="http://www.w3.org/2000/svg">
<path d="M4.72097 18.1666H0.609863V5.83325H8.83208C9.53371 5.83325 10.1422 5.94836 10.6574 6.17859C11.1727 6.39784 11.6002 6.69384 11.9401 7.06659C12.2799 7.43933 12.5321 7.86688 12.6965 8.34925C12.861 8.82066 12.9432 9.30303 12.9432 9.79636C12.9432 10.2897 12.861 10.783 12.6965 11.2764C12.5321 11.7697 12.2799 12.2137 11.9401 12.6084C11.6002 12.9921 11.1727 13.3045 10.6574 13.5457C10.1422 13.7869 9.53371 13.9075 8.83208 13.9075H4.72097V18.1666ZM4.72097 10.1253H8.74986V9.61547H4.72097V10.1253Z" fill="white"/>
<path d="M19.1637 18.1666H13.441V14.3844H18.9664V13.8253H13.441V10.1746H18.9664V9.61547H13.441V5.83325H18.9992C19.6461 5.83325 20.2381 5.90451 20.7752 6.04703C21.3234 6.17859 21.7893 6.3814 22.173 6.65547C22.5567 6.91859 22.8527 7.25844 23.061 7.67503C23.2803 8.08066 23.3899 8.55755 23.3899 9.1057C23.3899 9.81829 23.2309 10.4377 22.913 10.9639C22.5951 11.4792 22.0908 11.819 21.4001 11.9835C22.0908 12.1808 22.5951 12.5535 22.913 13.1017C23.2309 13.6389 23.3899 14.2035 23.3899 14.7955C23.3899 15.8479 23.0172 16.6756 22.2717 17.2786C21.5262 17.8706 20.4902 18.1666 19.1637 18.1666Z" fill="white"/>
</svg>
