<svg width="24" height="24" viewBox="0 0 24 24" fill="none" xmlns="http://www.w3.org/2000/svg">
<path d="M4.10882 18.1633H0V5.83679H8.21764C8.91888 5.83679 9.52698 5.95184 10.042 6.18193C10.5569 6.40107 10.9842 6.69691 11.3239 7.06944C11.6636 7.44197 11.9156 7.86929 12.0799 8.35139C12.2443 8.82253 12.3265 9.30464 12.3265 9.79769C12.3265 10.2908 12.2443 10.7838 12.0799 11.2769C11.9156 11.7699 11.6636 12.2137 11.3239 12.6081C10.9842 12.9916 10.5569 13.3039 10.042 13.5449C9.52698 13.786 8.91888 13.9065 8.21764 13.9065H4.10882V18.1633ZM4.10882 10.1264H8.13546V9.61691H4.10882V10.1264Z" fill="white"/>
<path d="M23.8356 18.1633H12.824V14.8269C12.824 14.1147 12.9555 13.4737 13.2185 12.904C13.4814 12.3232 13.843 11.8357 14.3032 11.4412C14.7743 11.0358 15.3386 10.7235 15.996 10.5044C16.6534 10.2853 17.3711 10.1757 18.149 10.1757H19.9076V9.61691H12.824V5.83679H19.2831C19.9624 5.83679 20.5869 5.9354 21.1567 6.13263C21.7374 6.32985 22.2359 6.60377 22.6523 6.95439C23.0796 7.29405 23.4083 7.71041 23.6384 8.20347C23.8795 8.68557 24 9.2115 24 9.78126C24 10.362 23.8959 10.8989 23.6877 11.3919C23.4795 11.885 23.1782 12.3123 22.7838 12.6739C22.4003 13.0354 21.9237 13.3203 21.3539 13.5285C20.7842 13.7257 20.1377 13.8243 19.4146 13.8243H17.0972V14.3831H23.8356V18.1633Z" fill="white"/>
</svg>
