<svg width="24" height="24" viewBox="0 0 24 24" fill="none" xmlns="http://www.w3.org/2000/svg">
<path d="M4.76248 18.1667H0.651367V5.83337H8.87359C9.57522 5.83337 10.1837 5.94849 10.6989 6.17871C11.2142 6.39797 11.6417 6.69397 11.9816 7.06671C12.3214 7.43945 12.5736 7.867 12.738 8.34937C12.9025 8.82078 12.9847 9.30315 12.9847 9.79649C12.9847 10.2898 12.9025 10.7832 12.738 11.2765C12.5736 11.7698 12.3214 12.2138 11.9816 12.6085C11.6417 12.9922 11.2142 13.3046 10.6989 13.5458C10.1837 13.787 9.57522 13.9076 8.87359 13.9076H4.76248V18.1667ZM4.76248 10.1254H8.79137V9.6156H4.76248V10.1254Z" fill="white"/>
<path d="M23.3492 18.1667H13.4825V14.1543H16.2781V9.78004H13.4825V5.83337H17.2648C18.2295 5.83337 19.0188 6.14034 19.6328 6.75426C20.2467 7.36819 20.5536 8.15752 20.5536 9.12226V14.1543H23.3492V18.1667Z" fill="white"/>
</svg>
