<svg width="24" height="24" viewBox="0 0 24 24" fill="none" xmlns="http://www.w3.org/2000/svg">
<path d="M11.9895 20C10.8213 20 9.71567 19.8053 8.67264 19.4159C7.62962 19.0126 6.72566 18.4633 5.96078 17.7679C5.19589 17.0587 4.58399 16.2173 4.12506 15.2438C3.68003 14.2564 3.45752 13.1856 3.45752 12.0313C3.45752 10.877 3.68003 9.80617 4.12506 8.81877C4.58399 7.83138 5.19589 6.98305 5.96078 6.27379C6.72566 5.56454 7.62962 5.00826 8.67264 4.60495C9.71567 4.20165 10.8213 4 11.9895 4C13.1576 4 14.2633 4.20165 15.3063 4.60495C16.3493 5.00826 17.2533 5.56454 18.0181 6.27379C18.783 6.98305 19.388 7.83138 19.833 8.81877C20.2919 9.80617 20.5214 10.877 20.5214 12.0313C20.5214 12.824 20.4101 13.5819 20.1876 14.3051C19.979 15.0143 19.68 15.668 19.2906 16.266H20.5423V20H12.2398C12.1981 20 12.1563 20 12.1146 20C12.0729 20 12.0312 20 11.9895 20ZM11.9895 15.2647C12.9212 15.2647 13.6792 14.9657 14.2633 14.3677C14.8473 13.7558 15.1394 12.9909 15.1394 12.073C15.1394 11.1551 14.8473 10.3972 14.2633 9.79922C13.6792 9.18731 12.9212 8.88135 11.9895 8.88135C11.0577 8.88135 10.2998 9.18731 9.71567 9.79922C9.14548 10.3972 8.86039 11.1551 8.86039 12.073C8.86039 12.9909 9.14548 13.7558 9.71567 14.3677C10.2998 14.9657 11.0577 15.2647 11.9895 15.2647Z" fill="white"/>
</svg>
