<svg width="24" height="24" viewBox="0 0 24 24" fill="none" xmlns="http://www.w3.org/2000/svg">
<path d="M20.2455 20H13.6749L9.30155 13.9413V20H3.75488V4H14.6989C15.6091 4 16.4127 4.14933 17.1095 4.448C17.8064 4.73244 18.3824 5.10933 18.8376 5.57867C19.3069 6.048 19.6553 6.58845 19.8829 7.2C20.1247 7.81156 20.2455 8.43022 20.2455 9.056C20.2455 9.63911 20.146 10.2151 19.9469 10.784C19.762 11.3387 19.4775 11.8436 19.0935 12.2987C18.7238 12.7396 18.2544 13.1164 17.6855 13.4293C17.1167 13.7422 16.4624 13.9484 15.7229 14.048L20.2455 20ZM9.08822 9.056V9.76H14.5282V9.056H9.08822Z" fill="white"/>
</svg>
