<svg width="24" height="24" fill="none" xmlns="http://www.w3.org/2000/svg"><path fill-rule="evenodd" clip-rule="evenodd" d="M8.436 12.943c-.032.344-.07.805-.083 1.025l-.024.4-1.1.062c-.604.034-1.313.13-1.573.215-1.56.502-2.49 1.74-2.64 3.51-.165 1.954.976 3.366 3.041 3.76.352.067 1.575.098 3.172.08l2.599-.03v-1.25c0-.687-.041-2.857-.09-4.823l-.09-3.574H8.496l-.059.625Zm7.09-.126c-.928.142-1.345.306-1.968.78-.722.547-1.065 1.123-1.147 1.93-.11 1.075.274 1.783 1.22 2.245.486.239.719.277 2.219.364 1.201.07 1.717.137 1.822.239.129.124.129.158 0 .28-.123.118-.546.124-2.674.038-1.39-.056-2.55-.08-2.578-.053-.027.028-.018.78.02 1.673l.07 1.623 3.057-.048c3.668-.058 4.183-.16 4.978-.99.476-.496.632-.965.64-1.918.006-.95-.153-1.44-.628-1.932-.563-.581-1.145-.752-2.97-.873-1.367-.09-1.657-.137-1.748-.28-.232-.37 0-.397 2.393-.284 1.255.059 2.311.073 2.348.032.036-.042.039-.706.005-1.475l-.06-1.4-2.25-.013c-1.237-.008-2.474.02-2.748.062Zm-7.465 5.324.031.275h-.71c-.734 0-.9-.099-.765-.454.048-.123.2-.149.736-.125.655.028.677.038.708.304ZM17.44 2.022l-1.56.029-.063.522c-.035.287-.063.889-.064 1.337v.814l1.624.042c.893.023 1.655.017 1.691-.015.11-.092.137-2.74.03-2.75-.053-.004-.8.005-1.658.02Zm-6.037.096-.4.037-.937 1.82c-.515 1-.976 1.862-1.024 1.914-.05.055-.087-.265-.087-.759 0-.47-.03-1.333-.065-1.92l-.066-1.064H7.296c-.84 0-1.549.033-1.573.075-.103.17-.79 9.538-.706 9.616.049.046 1.011.055 2.138.02l2.05-.065-.011-.25c-.093-2.096-.145-4.036-.108-3.998.026.028.257.559.512 1.182.256.622.57 1.364.699 1.649.128.285.326.731.44.992l.206.475 1.08-.01a40.37 40.37 0 0 0 1.986-.076l.907-.064-.759-1.45a912.644 912.644 0 0 0-1.38-2.625l-.621-1.176 1.36-2.072c.75-1.14 1.383-2.129 1.41-2.198.037-.098-.3-.121-1.537-.108-.872.01-1.766.034-1.986.055Zm4.25 3.5c0 .168-.044 1.108-.098 2.09l-.157 2.91-.06 1.124h3.837l-.073-3.124c-.04-1.718-.087-3.14-.105-3.159-.018-.019-.778-.06-1.689-.09l-1.656-.054v.304Z" fill="#fff"/></svg>
