<svg width="24" height="24" viewBox="0 0 24 24" fill="none" xmlns="http://www.w3.org/2000/svg">
<path d="M13.4821 20H4.54341V15.0933H14.3141V14.368H9.62075C8.92386 14.368 8.2483 14.2471 7.59408 14.0053C6.95408 13.7493 6.3923 13.3938 5.90874 12.9387C5.43941 12.4693 5.05541 11.9076 4.75674 11.2533C4.4723 10.5991 4.33008 9.86667 4.33008 9.056C4.33008 8.35911 4.46519 7.70489 4.73541 7.09333C5.01986 6.46756 5.40386 5.92711 5.88741 5.472C6.37097 5.01689 6.94697 4.66133 7.61541 4.40533C8.28386 4.13511 8.99497 4 9.74874 4H19.4554V8.90667H10.0474V9.632H13.8234C14.6767 9.632 15.4661 9.73867 16.1914 9.952C16.9167 10.1511 17.5354 10.464 18.0474 10.8907C18.5594 11.3031 18.9576 11.8293 19.2421 12.4693C19.5265 13.0951 19.6687 13.8276 19.6687 14.6667C19.6687 16.2596 19.1212 17.5467 18.0261 18.528C16.931 19.5093 15.4163 20 13.4821 20Z" fill="white"/>
</svg>
