<svg width="24" height="24" viewBox="0 0 24 24" fill="none" xmlns="http://www.w3.org/2000/svg">
<path d="M6.64905 17.9438H0.154989V14.3791H7.25351V13.8521H3.84374C3.33744 13.8521 2.84664 13.7643 2.37134 13.5886C1.90637 13.4027 1.49823 13.1443 1.14692 12.8137C0.805945 12.4727 0.526964 12.0646 0.309979 11.5893C0.103326 11.114 0 10.5818 0 9.99289C0 9.48659 0.09816 9.01129 0.29448 8.56698C0.501133 8.11235 0.780114 7.71971 1.13142 7.38906C1.48273 7.05842 1.9012 6.8001 2.38684 6.61411C2.87247 6.41779 3.3891 6.31963 3.93673 6.31963H10.9888V9.88439H4.15372V10.4114H6.89703C7.51699 10.4114 8.09045 10.4889 8.61742 10.6438C9.14438 10.7885 9.59385 11.0158 9.96582 11.3258C10.3378 11.6254 10.6271 12.0077 10.8338 12.4727C11.0404 12.9274 11.1437 13.4595 11.1437 14.0691C11.1437 15.2264 10.7459 16.1615 9.95032 16.8744C9.15471 17.5874 8.05429 17.9438 6.64905 17.9438Z" fill="white"/>
<path d="M17.6454 17.9438C16.7775 17.9438 15.956 17.7992 15.1811 17.5099C14.4062 17.2102 13.7345 16.8021 13.1662 16.2855C12.5979 15.7585 12.1433 15.1334 11.8023 14.4101C11.4717 13.6765 11.3064 12.8809 11.3064 12.0232C11.3064 11.1656 11.4717 10.37 11.8023 9.63641C12.1433 8.90279 12.5979 8.2725 13.1662 7.74554C13.7345 7.21857 14.4062 6.80527 15.1811 6.50562C15.956 6.20598 16.7775 6.05615 17.6454 6.05615C18.5134 6.05615 19.3348 6.20598 20.1098 6.50562C20.8847 6.80527 21.5563 7.21857 22.1246 7.74554C22.6929 8.2725 23.1424 8.90279 23.473 9.63641C23.814 10.37 23.9845 11.1656 23.9845 12.0232C23.9845 12.6122 23.9018 13.1753 23.7365 13.7126C23.5815 14.2396 23.3594 14.7252 23.0701 15.1695H24V17.9438H17.8314C17.8004 17.9438 17.7694 17.9438 17.7384 17.9438C17.7074 17.9438 17.6764 17.9438 17.6454 17.9438ZM17.6454 14.4256C18.3377 14.4256 18.9008 14.2034 19.3348 13.7591C19.7688 13.3045 19.9858 12.7362 19.9858 12.0542C19.9858 11.3723 19.7688 10.8092 19.3348 10.3649C18.9008 9.91022 18.3377 9.68291 17.6454 9.68291C16.9531 9.68291 16.39 9.91022 15.956 10.3649C15.5324 10.8092 15.3206 11.3723 15.3206 12.0542C15.3206 12.7362 15.5324 13.3045 15.956 13.7591C16.39 14.2034 16.9531 14.4256 17.6454 14.4256Z" fill="white"/>
</svg>
