<svg width="20" height="20" viewBox="0 0 20 20" fill="none" xmlns="http://www.w3.org/2000/svg">
<g clip-path="url(#clip0_721_70)">
<path d="M3.5 10C3.5 6.41015 6.41015 3.5 10 3.5C13.5899 3.5 16.5 6.41015 16.5 10C16.5 13.2498 14.1151 15.9425 11 16.4236V15C11 14.6312 10.797 14.2923 10.4719 14.1183C10.1467 13.9443 9.75216 13.9634 9.4453 14.168L6.4453 16.168C6.1671 16.3534 6 16.6656 6 17C6 17.3344 6.1671 17.6466 6.4453 17.8321L9.4453 19.8321C9.75216 20.0366 10.1467 20.0557 10.4719 19.8817C10.797 19.7077 11 19.3688 11 19V17.9381C14.9463 17.446 18 14.0796 18 10C18 5.58172 14.4183 2 10 2C5.58172 2 2 5.58172 2 10C2 12.1386 2.84018 14.0826 4.20696 15.5173C4.49266 15.8172 4.9674 15.8287 5.2673 15.543C5.56721 15.2573 5.57872 14.7826 5.29301 14.4827C4.18132 13.3158 3.5 11.7382 3.5 10Z" fill="#0F172A"/>
<path d="M10.75 6C10.75 5.58579 10.4142 5.25 10 5.25C9.58579 5.25 9.25 5.58579 9.25 6V10C9.25 10.4142 9.58579 10.75 10 10.75H13C13.4142 10.75 13.75 10.4142 13.75 10C13.75 9.58579 13.4142 9.25 13 9.25H10.75V6Z" fill="#0F172A"/>
</g>
<defs>
<clipPath id="clip0_721_70">
<rect width="20" height="20" fill="white"/>
</clipPath>
</defs>
</svg>
