<svg width="20" height="20" viewBox="0 0 20 20" fill="none" xmlns="http://www.w3.org/2000/svg">
<g clip-path="url(#clip0_725_321)">
<path fill-rule="evenodd" clip-rule="evenodd" d="M8.61323 12.9199L4.40945 15.7224C2.92282 14.2698 2 12.2427 2 10C2 5.58172 5.58172 2 10 2C14.4183 2 18 5.58172 18 10C18 11.0318 17.7281 11.7421 17.3554 12.2689C16.9667 12.8182 16.3792 13.2907 15.5863 13.6785C14.6604 14.1312 13.5642 14.4147 12.4637 14.5755C12.3343 13.8239 11.8658 13.163 11.1796 12.7958C10.3667 12.3608 9.38037 12.4085 8.61323 12.9199ZM10.75 5C10.75 4.58579 10.4142 4.25 10 4.25C9.58579 4.25 9.25 4.58579 9.25 5V10C9.25 10.4142 9.58579 10.75 10 10.75H14C14.4142 10.75 14.75 10.4142 14.75 10C14.75 9.58579 14.4142 9.25 14 9.25H10.75V5Z" fill="#0F172A"/>
<path d="M11 15C11 14.6312 10.797 14.2923 10.4719 14.1183C10.1467 13.9443 9.75216 13.9634 9.4453 14.168L6.4453 16.168C6.1671 16.3534 6 16.6656 6 17C6 17.3344 6.1671 17.6466 6.4453 17.8321L9.4453 19.8321C9.75216 20.0366 10.1467 20.0557 10.4719 19.8817C10.797 19.7077 11 19.3688 11 19V17.9381C13.3002 17.6512 15.2972 16.3879 16.5629 14.5759C16.4245 14.6546 16.282 14.7297 16.1355 14.8014C14.5758 15.564 12.6694 15.8858 11 15.9736V15Z" fill="#0F172A"/>
</g>
<defs>
<clipPath id="clip0_725_321">
<rect width="20" height="20" fill="white"/>
</clipPath>
</defs>
</svg>
