<svg width="20" height="20" viewBox="0 0 20 20" fill="none" xmlns="http://www.w3.org/2000/svg">
<path d="M19 4.73214C18.3381 5.02546 17.627 5.22364 16.8794 5.31322C17.642 4.8566 18.2271 4.13204 18.503 3.26953C17.7895 3.69286 16.9991 4.00044 16.158 4.16533C15.4842 3.44869 14.525 3 13.4627 3C11.4238 3 9.7701 4.65366 9.7701 6.69418C9.7701 6.98274 9.8034 7.26337 9.86523 7.53449C6.79494 7.3799 4.07505 5.90936 2.25332 3.67542C1.93623 4.22241 1.7539 4.8566 1.7539 5.53202C1.7539 6.81309 2.40632 7.94433 3.39646 8.60627C2.7908 8.58645 2.22162 8.42077 1.72377 8.1441V8.19167C1.72377 9.98089 2.99612 11.4736 4.68625 11.8129C4.3755 11.8969 4.04968 11.9413 3.71356 11.9413C3.47573 11.9413 3.24346 11.9191 3.01832 11.8763C3.48842 13.3429 4.85193 14.4115 6.46833 14.4401C5.20391 15.431 3.61129 16.0216 1.88153 16.0216C1.58346 16.0216 1.28935 16.0041 1 15.9701C2.63463 17.0189 4.57527 17.6293 6.66018 17.6293C13.454 17.6293 17.168 12.0024 17.168 7.12226C17.168 6.96371 17.164 6.80358 17.1569 6.64503C17.8783 6.1234 18.5045 5.47415 18.9984 4.73452L19 4.73214Z" fill="#87878C"/>
</svg>
