<svg width="20" height="20" viewBox="0 0 20 20" fill="none" xmlns="http://www.w3.org/2000/svg">
<path d="M7 3C7 2.64193 6.80855 2.3112 6.49806 2.13286C6.18757 1.95452 5.80542 1.9558 5.49613 2.13622L2.49613 3.88622C2.18891 4.06543 2 4.39433 2 4.75C2 5.10567 2.18891 5.43457 2.49613 5.61378L5.49613 7.36378C5.80542 7.5442 6.18757 7.54548 6.49806 7.36714C6.80855 7.1888 7 6.85807 7 6.5V5.5H13.25C15.0449 5.5 16.5 6.95507 16.5 8.75V17.25C16.5 17.6642 16.8358 18 17.25 18C17.6642 18 18 17.6642 18 17.25V8.75C18 6.12665 15.8734 4 13.25 4H7V3Z" fill="#0F172A"/>
<path d="M4.79077 17.1699C3.20874 17.1699 1.99585 16.2793 1.99585 15.3125C1.99585 14.9434 2.25952 14.6738 2.61694 14.6738C2.87476 14.6738 3.06812 14.7969 3.28491 15.1133C3.62476 15.6523 4.14624 15.9395 4.80249 15.9395C5.6814 15.9395 6.24976 15.4648 6.24976 14.7383C6.24976 14.0117 5.66968 13.5195 4.80835 13.5195H4.23413C3.88257 13.5195 3.62476 13.2559 3.62476 12.8926C3.62476 12.541 3.87671 12.2773 4.23413 12.2773H4.77905C5.49976 12.2773 6.0271 11.8086 6.0271 11.1641C6.0271 10.5195 5.51147 10.0801 4.76733 10.0801C4.18726 10.0801 3.73608 10.3496 3.42554 10.877C3.24976 11.1699 3.04468 11.293 2.76929 11.293C2.39429 11.293 2.12476 11.0293 2.12476 10.6484C2.12476 9.71094 3.26733 8.84961 4.79663 8.84961C6.41382 8.84961 7.55054 9.72266 7.55054 10.9707C7.55054 11.8379 6.90015 12.6348 6.09155 12.752V12.8516C7.06421 12.9453 7.79663 13.7773 7.79663 14.791C7.79663 16.1914 6.55444 17.1699 4.79077 17.1699Z" fill="#0F172A"/>
<path fill-rule="evenodd" clip-rule="evenodd" d="M11.7224 17.1699C9.82397 17.1699 8.69312 15.6113 8.69312 13.1973V12.8223C8.69312 10.4199 9.84155 8.84961 11.7458 8.84961C13.656 8.84961 14.781 10.4023 14.781 12.8223V13.1973C14.781 15.5938 13.6208 17.1699 11.7224 17.1699ZM11.7341 10.1387C10.8259 10.1387 10.2751 11.1406 10.2751 12.8281V13.1855C10.2751 14.873 10.8259 15.8809 11.7341 15.8809C12.6423 15.8809 13.1931 14.873 13.1931 13.1855V12.8281C13.1931 11.1465 12.6423 10.1387 11.7341 10.1387Z" fill="#0F172A"/>
</svg>
