<svg width="20" height="20" viewBox="0 0 20 20" fill="none" xmlns="http://www.w3.org/2000/svg">
<path d="M3 13C3 12.1716 3.67157 11.5 4.5 11.5C5.32843 11.5 6 12.1716 6 13C6 13.8284 5.32843 14.5 4.5 14.5C3.67157 14.5 3 13.8284 3 13Z" fill="#87878C"/>
<path d="M8.5 13C8.5 12.1716 9.17157 11.5 10 11.5C10.8284 11.5 11.5 12.1716 11.5 13C11.5 13.8284 10.8284 14.5 10 14.5C9.17157 14.5 8.5 13.8284 8.5 13Z" fill="#87878C"/>
<path d="M14 13C14 12.1716 14.6716 11.5 15.5 11.5C16.3284 11.5 17 12.1716 17 13C17 13.8284 16.3284 14.5 15.5 14.5C14.6716 14.5 14 13.8284 14 13Z" fill="#87878C"/>
<path d="M3 7C3 6.17157 3.67157 5.5 4.5 5.5C5.32843 5.5 6 6.17157 6 7C6 7.82843 5.32843 8.5 4.5 8.5C3.67157 8.5 3 7.82843 3 7Z" fill="#87878C"/>
<path d="M8.5 7C8.5 6.17157 9.17157 5.5 10 5.5C10.8284 5.5 11.5 6.17157 11.5 7C11.5 7.82843 10.8284 8.5 10 8.5C9.17157 8.5 8.5 7.82843 8.5 7Z" fill="#87878C"/>
<path d="M14 7C14 6.17157 14.6716 5.5 15.5 5.5C16.3284 5.5 17 6.17157 17 7C17 7.82843 16.3284 8.5 15.5 8.5C14.6716 8.5 14 7.82843 14 7Z" fill="#87878C"/>
</svg>
