<svg viewBox="0 0 96 32" fill="none" xmlns="http://www.w3.org/2000/svg">
<path fill-rule="evenodd" clip-rule="evenodd" d="M0.666667 2.66671H19.5467C22.7425 2.66671 25.3333 5.25757 25.3333 8.45337C25.3333 10.2421 24.5012 11.9468 23.0647 13.0429L12.2962 21.3334H24.6667V29.3334H5.78667C2.59086 29.3334 0 26.7425 0 23.5467C0 21.7284 0.854901 20.0495 2.25421 18.9682L13.0372 10.6667H0.666667V2.66671Z" fill="white"/>
<path fill-rule="evenodd" clip-rule="evenodd" d="M26 29.3334V2.66671H35.3333V29.3334H26Z" fill="white"/>
<path fill-rule="evenodd" clip-rule="evenodd" d="M64.6667 10.6667C64.2985 10.6667 64 10.9652 64 11.3334V17C64 24.5479 57.8812 30.6667 50.3333 30.6667C42.7854 30.6667 36.6667 24.5479 36.6667 17V2.66671H46V17C46 19.3933 47.9401 21.3334 50.3333 21.3334C52.7266 21.3334 54.6667 19.3933 54.6667 17V11.3334C54.6667 5.81053 59.1438 1.33337 64.6667 1.33337C70.1895 1.33337 74.6667 5.81053 74.6667 11.3334V20.6667C74.6667 21.0349 74.9651 21.3334 75.3333 21.3334C75.7015 21.3334 76 21.0349 76 20.6667V11.3334C76 5.81053 80.4772 1.33337 86 1.33337C91.5229 1.33337 96 5.81053 96 11.3334V29.3334H86.6667V11.3334C86.6667 10.9652 86.3682 10.6667 86 10.6667C85.6318 10.6667 85.3333 10.9652 85.3333 11.3334V20.6667C85.3333 26.1896 80.8562 30.6667 75.3333 30.6667C69.8105 30.6667 65.3333 26.1896 65.3333 20.6667V11.3334C65.3333 10.9652 65.0349 10.6667 64.6667 10.6667Z" fill="white"/>
</svg>