<svg width="88" height="32" viewBox="0 0 88 32" fill="none" xmlns="http://www.w3.org/2000/svg">
<path d="M77.6307 24.0601C78.036 22.9507 78.2387 21.7454 78.2387 20.4441V12.3481H79.2627V28.6681H87.9027V13.3081C87.9027 12.0494 87.6787 10.8761 87.2307 9.78807C86.804 8.67874 86.196 7.72941 85.4067 6.94007C84.6173 6.12941 83.6787 5.50007 82.5907 5.05207C81.524 4.58274 80.3507 4.34807 79.0707 4.34807C77.556 4.34807 76.2226 4.58274 75.0707 5.05207C73.94 5.52141 72.9906 6.18274 72.2226 7.03607C71.476 7.86807 70.9106 8.87074 70.5266 10.0441C70.1427 11.1961 69.9507 12.4547 69.9507 13.8201V21.4041H68.9266V13.8201C68.9266 12.4334 68.7347 11.1534 68.3506 9.98007C67.9666 8.80674 67.4013 7.80407 66.6546 6.97207C65.9293 6.14007 65.012 5.50007 63.9027 5.05207C62.8146 4.58274 61.556 4.34807 60.1266 4.34807C58.7827 4.34807 57.5453 4.58274 56.4146 5.05207C55.3053 5.50007 54.3453 6.12941 53.5346 6.94007C52.724 7.72941 52.0946 8.67874 51.6466 9.78807C51.1987 10.8761 50.9746 12.0494 50.9746 13.3081V16.8255C50.9746 18.0415 50.612 19.0441 49.8866 19.8335C49.1613 20.6228 48.1906 21.0175 46.9746 21.0175C45.7586 21.0175 44.788 20.6228 44.0626 19.8335C43.3373 19.0441 42.9746 18.0415 42.9746 16.8255V4.66547H34.3346V17.3055C34.3346 19.2468 34.676 20.9641 35.3586 22.4575C36.0413 23.9295 36.9586 25.1561 38.1107 26.1375C39.2627 27.1188 40.6066 27.8655 42.1427 28.3775C43.6787 28.8895 45.2893 29.1455 46.9746 29.1455C48.66 29.1455 50.2706 28.8895 51.8066 28.3775C53.3426 27.8655 54.6866 27.1188 55.8387 26.1375C56.9907 25.1561 57.908 23.9295 58.5906 22.4575C59.2733 20.9641 59.6147 19.2468 59.6147 17.3055L59.6146 12.3481H60.6386V20.4441C60.6386 21.7454 60.8306 22.9507 61.2146 24.0601C61.62 25.1481 62.196 26.0867 62.9426 26.8761C63.6893 27.6654 64.6067 28.2841 65.6946 28.7321C66.7826 29.1801 68.02 29.4041 69.4066 29.4041C70.7933 29.4041 72.0307 29.1801 73.1186 28.7321C74.228 28.2841 75.156 27.6761 75.9027 26.9081C76.6707 26.1187 77.2467 25.1694 77.6307 24.0601Z" fill="white"/>
<path d="M1.8654 27.1935C2.97473 28.1748 4.46807 28.6655 6.3454 28.6655H23.2734V21.3055H10.8574L20.3934 14.6175C21.6947 13.7001 22.5801 12.7828 23.0494 11.8655C23.5401 10.9481 23.7854 10.0841 23.7854 9.27347C23.7854 7.92947 23.2627 6.8308 22.2174 5.97747C21.1934 5.1028 19.8174 4.66547 18.0894 4.66547H0.457398V12.0255H11.7214L3.5614 17.9775C2.3454 18.8735 1.4814 19.8015 0.969398 20.7615C0.478732 21.7215 0.233398 22.6495 0.233398 23.5455C0.233398 24.9961 0.777399 26.2121 1.8654 27.1935Z" fill="white"/>
<path d="M24.7409 28.6655H33.0609V4.66547H24.7409V28.6655Z" fill="white"/>
</svg>
