<svg width="20" height="20" viewBox="0 0 20 20" fill="none" xmlns="http://www.w3.org/2000/svg">
<path d="M17.25 10C16.8358 10 16.5045 10.3372 16.4573 10.7487C16.0861 13.9859 13.3366 16.5 10 16.5C6.41015 16.5 3.5 13.5899 3.5 10C3.5 6.66337 6.01407 3.91394 9.25126 3.54266C9.66277 3.49546 10 3.16421 10 2.75C10 2.33579 9.66314 1.99632 9.2507 2.03463C5.18377 2.4124 2 5.83439 2 10C2 14.4183 5.58172 18 10 18C14.1656 18 17.5876 14.8162 17.9654 10.7493C18.0037 10.3369 17.6642 10 17.25 10Z" fill="#0F172A"/>
</svg>
